<?xml version="1.0" ?><!DOCTYPE svg  PUBLIC '-//W3C//DTD SVG 1.1//EN'  'http://www.w3.org/Graphics/SVG/1.1/DTD/svg11.dtd'><svg enable-background="new 0 0 512 512" height="512px" id="Layer_1" version="1.1" viewBox="0 0 512 512" width="512px" xml:space="preserve" xmlns="http://www.w3.org/2000/svg" xmlns:xlink="http://www.w3.org/1999/xlink"><path d="M492.271,442.759c0,34.171-27.701,61.872-61.873,61.872H80.655c-34.171,0-61.873-27.701-61.873-61.872  V93.014c0-34.171,27.702-61.872,61.873-61.872h349.743c34.172,0,61.873,27.701,61.873,61.872V442.759z" fill="#23577A"/><path d="M492.271,418.016c0,34.17-27.701,61.871-61.873,61.871H80.655c-34.171,0-61.873-27.701-61.873-61.871V68.27  c0-34.171,27.702-61.872,61.873-61.872h349.743c34.172,0,61.873,27.701,61.873,61.872V418.016z" fill="#5588C7"/><path d="M492.271,241.249L376.869,125.847h-36.09c-18.497,0-34.969,9.812-45.474,25l-25.001-25h-36.09  c-31.65,0-57.398,28.699-57.398,63.98v21.324h-42.629v42.635l42.629,42.628v64.021l119.452,119.452h134.13  c18.053,0,34.297-7.736,45.607-20.069v-1.131h0.996c9.501-10.876,15.27-25.096,15.27-40.672V241.249z" fill="#326793"/><path d="M283.377,189.827v21.324h-21.313h-21.309h-21.316v-21.324c0-12.582,7.785-21.829,14.775-21.829h36.09  v-42.151h-36.09c-31.65,0-57.398,28.699-57.398,63.98v21.324h-42.629v42.635h42.629v106.65h42.623v-106.65h21.316h21.309h21.313  v106.65h42.629v-106.65h42.621v-42.635h-42.621v-21.324c0-12.582,7.785-21.829,14.773-21.829h36.09v-42.151h-36.09  C309.129,125.847,283.377,154.546,283.377,189.827z" fill="#FFFFFF"/></svg>